<svg width="40" height="40" viewBox="0 0 40 40" xmlns="http://www.w3.org/2000/svg">
  <g transform="translate(2 2)">
    <circle stroke="#1f6faa" stroke-width="3" fill="#FFF" cx="18" cy="18" r="18"/>
    <path d="M16.864 16.413c-2.244-.403-3.935-2.14-3.935-4.226 0-1.577.98-2.943 2.42-3.695.46.868 1.4 1.756 2.69 2.41 1.69.856 3.49 1.068 4.66.66.03.206.07.41.07.625 0 2.084-1.69 3.822-3.94 4.225 3.15-.422 5.57-2.784 5.57-5.662C24.42 7.575 21.48 5 17.85 5c-3.626 0-6.57 2.575-6.57 5.75 0 2.878 2.425 5.24 5.578 5.662m5.928 1.526h-.822c0 1.985-1.838 3.593-4.107 3.593-2.27 0-4.107-1.6-4.107-3.59h-.82c-2.723 0-4.93 1.93-4.93 4.31v4.32c0 .79.735 1.43 1.643 1.43H26.07c.91 0 1.644-.64 1.644-1.43v-4.32c0-2.38-2.204-4.31-4.928-4.31" fill="#1f6faa"/>
  </g>
</svg>
