<svg width="40" height="40" viewBox="0 0 40 40" xmlns="http://www.w3.org/2000/svg">
  <g transform="translate(2 2)">
    <circle stroke="#61a612" stroke-width="3" fill="#FFF" cx="18" cy="18" r="18"/>
    <path d="M24.25 16.063h2.875v2.875H24.25v-2.875zm0 4.312h2.875v2.875H24.25v-2.875zm-2.875 4.313h4.313v2.875h-4.313v-2.875zm-1.438-4.313h2.875v2.875h-2.875v-2.875zm0-4.313h2.875v2.875h-2.875v-2.875zm-5.75-8.625h2.876v2.875h-2.875V7.438zm0 4.313h2.876v2.875h-2.875V11.75zm0 4.313h2.876v2.875h-2.875v-2.875zm0 4.312h2.876v2.875h-2.875v-2.875zm-2.874 4.313h4.312v2.875h-4.313v-2.875zm-1.438-4.313h2.875v2.875H9.875v-2.875zm0-4.313h2.875v2.875H9.875v-2.875zm0-4.312h2.875v2.875H9.875V11.75zm0-4.313h2.875v2.875H9.875V7.438zm18.688 20.125V14.626H18.5V6H8.437v21.563H7V29h23v-1.438h-1.438z" fill="#61a612"/>
  </g>
</svg>
