<svg xmlns="http://www.w3.org/2000/svg" fill="none" viewBox="0 0 184 59">
  <defs/>
  <g clip-path="url(#clip0)">
    <path fill="#0F19A0" d="M130.539 43.8355c2.442 0 3.86 1.6275 3.998 3.6657h-8.117c.442-2.5401 1.831-3.6657 4.119-3.6657zm4.15 8.6698c-.396 1.5666-1.754 2.3575-3.783 2.3575-2.548 0-4.181-1.597-4.547-4.1675h13.182c.031-.3955.076-.943.076-1.6275 0-4.1676-2.578-8.9283-9.062-8.9283-6.225 0-9.063 4.7607-9.063 9.3998 0 4.6087 3.204 9.4759 9.429 9.4759 4.516 0 8.01-2.5401 8.742-6.4947h-4.974v-.0152zM113.223 59c4.302 0 7.14-2.2815 7.14-5.7646 0-8.2743-10.039-4.0307-10.039-7.7572 0-1.156.976-1.7796 2.395-1.7796 1.389 0 2.807.8366 3.021 2.388h4.409c-.183-3.5896-3.173-5.9471-7.567-5.9471-3.753 0-6.545 2.2815-6.545 5.5212 0 7.6963 9.856 4.0307 9.856 7.7572 0 1.0191-1.099 1.7796-2.655 1.7796-1.892 0-3.174-1.0191-3.341-2.6466h-4.364c.153 3.9394 3.204 6.4491 7.69 6.4491zm-14.7844-.289h5.0954V40.4285h-5.0954V58.711zm-.1373-20.8987h5.3857v-5.3387h-5.3857v5.3387zM68.4127 58.711h5.3095l5.0653-16.9136 5.0653 16.9136h5.3858l7.537-25.4009h-5.5384l-4.9127 17.3852-5.2484-17.3852h-4.6229l-5.2027 17.3852-4.8822-17.3852H60.83l7.5827 25.4009zM166.485 26.2374h5.096V16.2292c0-2.3576 1.571-4.0611 3.784-4.0611 2.105 0 3.524 1.597 3.524 3.8025v10.2668h5.096V14.8451c0-4.2132-2.685-7.17921-6.835-7.17921-2.518 0-4.547 1.0495-5.569 2.82911V7.93968h-5.096V26.2374zm-11.641-4.0611c-2.731 0-4.593-2.0685-4.593-5.0801 0-3.0421 1.862-5.1106 4.593-5.1106s4.592 2.0685 4.592 5.1106c0 3.0116-1.861 5.0801-4.592 5.0801zm0 4.3501c5.645 0 9.688-3.985 9.688-9.4302 0-5.4453-4.043-9.43031-9.688-9.43031-5.645 0-9.688 3.98501-9.688 9.43031 0 5.4452 4.043 9.4302 9.688 9.4302zm-16.737-.289h5.096V7.93968h-5.096V26.2374zm-.153-20.89865h5.386V0h-5.386v5.33875zm-9.017 21.18765c4.303 0 7.141-2.2815 7.141-5.7646 0-8.2743-10.039-4.0307-10.039-7.7572 0-1.1559.976-1.7795 2.395-1.7795 1.388 0 2.807.8365 3.021 2.3879h4.409c-.183-3.5895-3.173-5.94711-7.567-5.94711-3.754 0-6.546 2.28152-6.546 5.52131 0 7.6963 9.872 4.0306 9.872 7.7723 0 1.0191-1.099 1.7796-2.655 1.7796-1.892 0-3.174-1.0191-3.341-2.6465h-4.364c.137 3.9242 3.204 6.4338 7.674 6.4338zm-27.111-.289h5.095V16.2292c0-2.3576 1.572-4.0611 3.784-4.0611 2.106 0 3.525 1.597 3.525 3.8025v10.2668h5.095V14.8451c0-4.2132-2.685-7.17921-6.835-7.17921-2.517 0-4.546 1.0495-5.569 2.82911V7.93968h-5.095V26.2374zM90.7643 11.3619c2.4411 0 3.86 1.6275 3.9973 3.6657h-8.1168c.4425-2.5401 1.8309-3.6657 4.1195-3.6657zm4.1499 8.6698c-.3967 1.5667-1.7546 2.3576-3.7838 2.3576-2.5479 0-4.1804-1.5971-4.5466-4.1676h13.1821c.0305-.3955.0763-.943.0763-1.6275 0-4.1675-2.5784-8.92831-9.0627-8.92831-6.2249 0-9.0627 4.76081-9.0627 9.39981 0 4.6087 3.204 9.4759 9.4289 9.4759 4.5161 0 8.0099-2.5401 8.7423-6.4947h-4.9738v-.0152zm-26.7914-7.6963V5.36917h4.6534c2.5479 0 3.6464 1.62748 3.6464 3.48311 0 1.85562-1.0985 3.48312-3.6464 3.48312h-4.6534zm-5.4926 13.902h5.4926v-9.3542h4.989c5.4163 0 8.5898-3.3766 8.5898-8.01571 0-4.68471-3.1735-8.015724-8.5898-8.015724H62.6302V26.2374z"/>
    <path fill="#009DD4" d="M22.1532 58.711V38.6793 58.711h5.5383-5.5383zM24.9147 29.5228c.7781-1.1712 1.7241-2.2511 2.7768-3.1941V7.14875l5.874 5.85585 3.921-3.90896-6.6826-6.66202C29.2325.866976 27.1422 0 24.93 0c-2.2276 0-4.3025.866976-5.874 2.43362l-6.6978 6.66202 3.921 3.90896 5.874-5.85585V26.3287c1.0527.943 1.9834 2.0077 2.7615 3.1941z"/>
    <path fill="#F39200" d="M11.0461 22.0851H7.15553l5.87397-5.8559-3.90582-3.909-6.68258 6.662c-3.249754 3.2246-3.249754 8.4873 0 11.7118l6.68258 6.6772 3.92102-3.909-5.87392-5.8559h3.89052c6.1181 0 11.0919 4.9585 11.0919 11.0578V26.3135c-2.9446-2.6162-6.8352-4.2284-11.1071-4.2284z"/>
    <path fill="#009DD4" d="M22.1532 46.0258V58.711 38.6793c0-3.3766 1.0222-6.5251 2.7768-9.1565-.7781-1.1864-1.7241-2.2511-2.7768-3.1941v19.6971z"/>
    <path fill="#006D73" d="M22.1532 46.0258V58.711 38.6793c0-3.3766 1.0222-6.5251 2.7768-9.1565-.7781-1.1864-1.7241-2.2511-2.7768-3.1941v19.6971z"/>
    <path fill="#00B9BA" d="M47.4036 18.9974l-6.6978-6.6772-3.9211 3.909 5.874 5.8559h-3.8753c-4.2567 0-8.1473 1.6122-11.0919 4.2436v12.3354c0-6.0993 4.9738-11.0578 11.0919-11.0578h3.8753l-5.874 5.8559 3.9211 3.909 6.6978-6.6772c3.2345-3.2093 3.2345-8.472 0-11.6966z"/>
    <path fill="#006DBC" d="M24.9147 29.5228c1.7545 2.6314 2.7768 5.7646 2.7768 9.1413V26.3287c-1.0528.943-1.9835 2.0077-2.7768 3.1941z"/>
    <path fill="#0F19A0" d="M22.1533 38.6945V58.711h5.5383V38.6641c0-3.3766-1.0222-6.5251-2.7768-9.1413-1.7545 2.6314-2.7767 5.7799-2.7767 9.1565v.0152h.0152z"/>
  </g>
  <defs>
    <clipPath id="clip0">
      <path fill="#fff" d="M0 0h184v59H0z"/>
    </clipPath>
  </defs>
</svg>
